<svg xmlns="http://www.w3.org/2000/svg" viewBox="0 0 657.32 597.026" fill="#FFFFFF">
	<path d="M0.548,21.334C3.507,6.897,17.606-2.411,32.043,0.548l84.296,17.265l33.346,100.036
		l507.636,36.748L641.083,371.09l-454.411,31.024c-37.411,2.298-49.084,30.648-43.402,47.137
		c12.354-7.801,26.989-12.319,42.68-12.319c13.151,0,25.56,3.175,36.505,8.795c18.063,9.274,32.14,24.14,38.982,43.498h1.084h233.17
		c10.99-31.09,40.636-52.293,75.487-52.293c44.21,0,80.048,35.838,80.048,80.047s-35.838,80.048-80.048,80.048
		c-34.852,0-64.497-22.693-75.487-53.782H261.437c-10.99,31.089-40.635,53.782-75.487,53.782c-44.208,0-80.047-35.839-80.047-80.048
		c0-6.452,0.769-12.724,2.21-18.734c-11.853-15.655-18.887-35.16-18.887-56.31c0-45.562,32.629-83.495,75.793-91.727L75.453,63.912
		L21.335,52.828C6.897,49.871-2.408,35.771,0.548,21.334z M571.177,543.661L571.177,543.661c14.737,0,26.684-11.946,26.684-26.683
		s-11.946-26.683-26.683-26.683h-0.001c-14.735,0-26.683,11.946-26.683,26.683S556.441,543.661,571.177,543.661z M170.94,539.04
		c4.277,2.915,9.443,4.621,15.009,4.621c9.256,0,17.409-4.715,22.194-11.872c2.834-4.236,4.488-9.33,4.488-14.811
		c0-14.736-11.945-26.683-26.683-26.683c-5.565,0-10.731,1.706-15.009,4.621c-7.046,4.804-11.673,12.892-11.673,22.062
		c0,6.326,2.202,12.134,5.88,16.707C166.802,535.742,168.755,537.55,170.94,539.04z M600.103,203.96l-430.291-31.149l50.735,173.501
		l370.778-25.314L600.103,203.96z"/>
	<g>
		<polygon points="206.057,364.345 600.057,338.345 617.057,190.345 157.057,153.345"/>
	</g>
</svg>
