<svg xmlns="http://www.w3.org/2000/svg" viewBox="-10 0 170 170" fill="#ffffff">
	<path d="M 159.375,84.375002 C 159.375,130.78125 125.62501,168.75 75.000002,168.75 28.593751,168.75 -9.375,128.67187 -9.375,86.484378 -9.375,37.968751 28.593751,-1.2e-6 75.000002,-1.2e-6 c 31.640628,0 46.406248,8.4375008 61.171868,27.4218772 L 159.375,4.21875 l 0,61.171877 -63.281248,0 25.312498,-23.203126 C 115.07813,37.968751 102.42188,21.09375 75.000002,21.09375 c -33.750001,0 -63.281251,29.531251 -63.281251,65.390628 0,33.749992 27.421875,61.171872 63.281251,61.171872 31.640628,0 63.281248,-27.42188 63.281248,-63.281248 z" />
</svg>
