<?xml version="1.0" encoding="UTF-8" standalone="no"?>
<!DOCTYPE svg PUBLIC "-//W3C//DTD SVG 1.1//EN" "http://www.w3.org/Graphics/SVG/1.1/DTD/svg11.dtd">
<svg version="1.1"
    xmlns="http://www.w3.org/2000/svg"
    xmlns:xlink="http://www.w3.org/1999/xlink" preserveAspectRatio="xMidYMid meet" viewBox="119 91.99999999999994 404 294.0000000000001">
    <path d="M220.94 133C232.62 133 243.3 126.4 248.52 115.96C250.82 111.37 246.82 119.37 248.52 115.96C255.56 101.89 269.94 93 285.67 93C304.53 93 333.3 93 351.63 93C369.02 93 384.91 102.82 392.69 118.38C394.15 121.3 389.69 112.39 392.12 117.23C396.95 126.9 406.82 133 417.63 133C438.1 133 472.16 133 490.2 133C506.66 133 520 146.34 520 162.8C520 172.16 520 195.56 520 233L480 193L480 173L440 173L440 193L480 193L520 233L520 293L400 260C400 260 400 260 400 260C400 215.82 364.18 180 320 180C304 180 336 180 320 180C275.82 180 240 215.82 240 260C240 276 240 244 240 260C240 304.18 275.82 340 320 340C336 340 304 340 320 340C364.18 340 400 304.18 400 260C400 260 400 260 400 260L520 293C520 324.73 520 344.56 520 352.49C520 369.34 506.34 383 489.49 383C415.6 383 225.54 383 151.92 383C134.29 383 120 368.71 120 351.08C120 307.46 120 206.27 120 162.09C120 146.02 133.02 133 149.09 133C167.27 133 200.76 133 220.94 133Z" id="b5F65a1X"></path>
</svg>