<?xml version="1.0" encoding="UTF-8" standalone="no"?>
<!DOCTYPE svg PUBLIC "-//W3C//DTD SVG 1.1//EN" "http://www.w3.org/Graphics/SVG/1.1/DTD/svg11.dtd">
<svg version="1.1"
    xmlns="http://www.w3.org/2000/svg"
    xmlns:xlink="http://www.w3.org/1999/xlink" preserveAspectRatio="xMidYMid meet" viewBox="-1.0000000000000142 -1 139 179">
    <path d="M40.29 30.67C42.89 30.67 45 28.56 45 25.95C45 22.76 45 25.88 45 24.68C45 16.57 51.57 10 59.68 10C72.74 10 97.44 10 110.56 10C118.53 10 125 16.47 125 24.44C125 45.56 125 95.01 125 116.26C125 123.85 118.85 130 111.26 130C110.01 130 113.53 130 110.66 130C107.53 130 105 132.53 105 135.66C105 136.53 105 133.47 105 134.34C105 137.47 107.53 140 110.66 140C115.53 140 117.26 140 120.32 140C128.43 140 135 133.43 135 125.32C135 100.26 135 39.56 135 14.44C135 6.47 128.53 0 120.56 0C103.44 0 66.56 0 49.44 0C41.47 0 35 6.47 35 14.44C35 17.69 35 20.01 35 25.01C35 28.13 37.53 30.67 40.66 30.67C41.53 30.67 39.23 30.67 40.29 30.67Z" id="a1doFf6bgv"></path>
    <path d="M0 105L10 105C10 80.83 10 65.72 10 59.68C10 51.57 16.57 45 24.68 45C37.74 45 62.44 45 75.56 45C83.53 45 90 51.47 90 59.44C90 80.56 90 130.01 90 151.26C90 158.85 83.85 165 76.26 165C63.01 165 37.18 165 23.97 165C16.26 165 10 158.74 10 151.03C10 144.89 10 129.55 10 105L0 105C0 134.63 0 153.15 0 160.56C0 168.53 6.47 175 14.44 175C31.56 175 68.26 175 85.32 175C93.43 175 100 168.43 100 160.32C100 135.26 100 74.56 100 49.44C100 41.47 93.53 35 85.56 35C68.44 35 31.56 35 14.44 35C6.47 35 0 41.47 0 49.44C0 56.85 0 75.37 0 105Z" id="bcd7RjG7Y"></path>
</svg>