<?xml version="1.0" encoding="UTF-8" standalone="no"?>
<!DOCTYPE svg PUBLIC "-//W3C//DTD SVG 1.1//EN" "http://www.w3.org/Graphics/SVG/1.1/DTD/svg11.dtd">
<svg
   xmlns:dc="http://purl.org/dc/elements/1.1/"
   xmlns:cc="http://creativecommons.org/ns#"
   xmlns:rdf="http://www.w3.org/1999/02/22-rdf-syntax-ns#"
   xmlns:svg="http://www.w3.org/2000/svg"
   xmlns="http://www.w3.org/2000/svg"
   viewBox="0 0 12.7 12.7"
   version="1.1"
   id="svg8">
  <title
     id="title858">disconnected</title>
  <defs
     id="defs2" />
  <metadata
     id="metadata5">
    <rdf:RDF>
      <cc:Work
         rdf:about="">
        <dc:format>image/svg+xml</dc:format>
        <dc:type
           rdf:resource="http://purl.org/dc/dcmitype/StillImage" />
        <dc:title>disconnected</dc:title>
      </cc:Work>
    </rdf:RDF>
  </metadata>
   <g
      id="g856"
      transform="matrix(0.25263158,-0.25263158,0.25263158,0.25263158,-4.0105262,8.3552618)">
   <path
      d="m 14.552083,2.6458333 h 3.96875 V 30.427083 h -3.96875 v -3.96875 c -6.6145831,0 -6.4728419,-2.976563 -6.614583,-7.9375 H 1.3229167 v -3.96875 H 7.9375 c 0,-6.4255953 0.5197172,-7.9374997 6.614583,-7.9374997 z"
      id="path833" />
   <path
      d="m 34.395833,2.6458302 h -3.96875 v 7.8430088 l -5.291666,0.0945 v 2.645834 l 5.291666,-3e-6 v 6.520086 l -5.291666,0.04725 v 2.64583 l 5.291666,0.04725 v 7.9375 h 3.96875 v -3.96875 c 6.614583,0 6.472841,-2.976563 6.614583,-7.9375 l 6.614584,-3e-6 v -3.96875 l -6.614584,3e-6 c 0,-6.4255963 -0.519717,-7.9374997 -6.614583,-7.9374997 z"
      id="path833-5" />
   </g>
</svg>
