<?xml version="1.0" encoding="UTF-8" standalone="no"?>
<!DOCTYPE svg PUBLIC "-//W3C//DTD SVG 1.1//EN" "http://www.w3.org/Graphics/SVG/1.1/DTD/svg11.dtd">
<svg version="1.1"
    xmlns="http://www.w3.org/2000/svg"
    xmlns:xlink="http://www.w3.org/1999/xlink" preserveAspectRatio="xMidYMid meet" viewBox="-1 -1 544 444">

    <path d="M2.39 240L102.39 240L102.39 320L2.39 320L2.39 240Z" id="b6W5WA42qD"></path>
    <path d="M140 240L540 240L540 320L140 320L140 240Z" id="aAVMPQAql"></path>
    <path d="M140 360L540 360L540 440L140 440L140 360Z" id="fBdH4Whav"></path>
    <path d="M140 120L540 120L540 200L140 200L140 120Z" id="d7F1Wqx4YB"></path>
    <path d="M0 360L100 360L100 440L0 440L0 360Z" id="j1360mtCkN"></path>
    <path d="M0 120L100 120L100 200L0 200L0 120Z" id="cuSjpMY6u"></path>
    <path d="M140 0L540 0L540 80L140 80L140 0Z" id="a3nD9uozpJ"></path>
    <path d="M0 0L100 0L100 80L0 80L0 0Z" id="aeecij3Xr"></path>
</svg>