<?xml version="1.0" encoding="UTF-8" standalone="no"?>
<!DOCTYPE svg PUBLIC "-//W3C//DTD SVG 1.1//EN" "http://www.w3.org/Graphics/SVG/1.1/DTD/svg11.dtd">
<svg version="1.1"
  xmlns="http://www.w3.org/2000/svg"
  xmlns:xlink="http://www.w3.org/1999/xlink" preserveAspectRatio="xMidYMid meet" viewBox="0 0 525.146527244885 464.33826262417773">
  <path d="M324.23 43.26C410.8 111.87 425.36 237.66 356.75 324.23C356.75 324.23 356.75 324.23 356.75 324.23L325.4 299.38C325.4 299.38 325.4 299.38 325.4 299.38C380.29 230.13 368.64 129.5 299.38 74.61C274.3 54.74 324.06 94.17 298.88 74.21C229.9 19.55 129.67 31.15 75.01 100.13C55.05 125.31 93.75 76.48 73.69 101.79C19.31 170.41 30.86 270.11 99.47 324.48C124.78 344.54 75.55 305.53 100.63 325.4C169.89 380.29 270.52 368.64 325.4 299.38C325.4 299.38 325.4 299.38 325.4 299.38L356.75 324.23C356.75 324.23 356.75 324.23 356.75 324.23C288.15 410.8 162.36 425.36 75.79 356.75C44.44 331.91 107.14 381.6 75.79 356.75C-10.78 288.15 -25.34 162.36 43.26 75.79C68.11 44.44 18.42 107.14 43.26 75.79C111.87 -10.78 237.66 -25.34 324.23 43.26C355.58 68.11 292.88 18.42 324.23 43.26Z" id="b2hVSvwZaU"></path>
  <path d="M328.66 327.48L353.5 296.13L521.15 428.99L496.3 460.34L328.66 327.48Z" id="bcjNDueoM"></path>
</svg>
