<?xml version="1.0" encoding="UTF-8" standalone="no"?>
<!DOCTYPE svg PUBLIC "-//W3C//DTD SVG 1.1//EN" "http://www.w3.org/Graphics/SVG/1.1/DTD/svg11.dtd">
<svg version="1.1"
    xmlns="http://www.w3.org/2000/svg"
    xmlns:xlink="http://www.w3.org/1999/xlink" preserveAspectRatio="xMidYMid meet" viewBox="-1 -1 104 464">

    <path d="M100 50C100 77.6 77.6 100 50 100C22.4 100 0 77.6 0 50C0 22.4 22.4 0 50 0C77.6 0 100 22.4 100 50Z" id="agPqzvnCO"></path>
    <path d="M100 230C100 257.6 77.6 280 50 280C22.4 280 0 257.6 0 230C0 202.4 22.4 180 50 180C77.6 180 100 202.4 100 230Z" id="fXAiJwN6l"></path>
    <path d="M100 410C100 437.6 77.6 460 50 460C22.4 460 0 437.6 0 410C0 382.4 22.4 360 50 360C77.6 360 100 382.4 100 410Z" id="cdUmaiJwg"></path>

</svg>