<?xml version="1.0" encoding="UTF-8" standalone="no"?>
<!DOCTYPE svg PUBLIC "-//W3C//DTD SVG 1.1//EN" "http://www.w3.org/Graphics/SVG/1.1/DTD/svg11.dtd">
<svg version="1.1" xmlns="http://www.w3.org/2000/svg" xmlns:xlink="http://www.w3.org/1999/xlink"
    preserveAspectRatio="xMidYMid meet" viewBox="0 0 88.39251070435263 88.24350281204552">
    <path
        d="M1.77 68.8L0 88.24L19.45 86.48L17.68 84.71C11.1 85.44 6.99 85.9 5.35 86.08C3.51 86.28 1.96 84.73 2.17 82.9C2.35 81.25 2.8 77.14 3.54 70.57C8.23 71.24 11.17 71.66 12.35 71.83C14.46 72.13 16.12 73.79 16.42 75.9C16.59 77.07 17.01 80.01 17.68 84.71L19.45 86.48L79.55 26.37L61.87 8.69L1.77 68.8Z"
        id="b5mnBqJRXK"></path>
    <path
        d="M63.64 6.93L81.32 24.6C83.76 22.16 85.29 20.64 85.9 20.03C89.22 16.7 89.22 11.3 85.9 7.97C83.57 5.64 82.76 4.84 80.47 2.55C77.03 -0.89 71.46 -0.89 68.02 2.55C67.43 3.13 65.97 4.59 63.64 6.93Z"
        id="eJ6eZfDcZ"></path>
</svg>