<?xml version="1.0" encoding="UTF-8" standalone="no"?>
<!DOCTYPE svg PUBLIC "-//W3C//DTD SVG 1.1//EN" "http://www.w3.org/Graphics/SVG/1.1/DTD/svg11.dtd">
<svg version="1.1" xmlns="http://www.w3.org/2000/svg" xmlns:xlink="http://www.w3.org/1999/xlink" preserveAspectRatio="xMidYMid meet" viewBox="0 0 404 444">
  <path d="M400 440C400 408.71 400 389.16 400 381.33C400 292.23 327.77 220 238.67 220C190.93 220 209.07 220 161.33 220C72.23 220 0 292.23 0 381.33C0 389.16 0 408.71 0 440L400 440Z" id="d1VIhRZ0mG"></path>
  <path d="M300 100C300 155.19 255.19 200 200 200C144.81 200 100 155.19 100 100C100 44.81 144.81 0 200 0C255.19 0 300 44.81 300 100Z" id="b7vBNQpcx"></path>
</svg>
