<?xml version="1.0" encoding="UTF-8" standalone="no"?>
<!DOCTYPE svg PUBLIC "-//W3C//DTD SVG 1.1//EN" "http://www.w3.org/Graphics/SVG/1.1/DTD/svg11.dtd">
<svg version="1.1" xmlns="http://www.w3.org/2000/svg" xmlns:xlink="http://www.w3.org/1999/xlink" preserveAspectRatio="xMidYMid meet" viewBox="0 0 154 354">
  <path d="M0 160L19.75 160L39.51 160L39.51 200L19.75 200L19.75 160L0 160C0 246.63 0 300.77 0 322.43C0 337.66 12.34 350 27.57 350C52.06 350 98.82 350 123.52 350C138.15 350 150 338.15 150 323.52C150 299.05 150 237.88 150 140L0 140L0 160Z" id="f4brUVKWE"></path>
  <path d="M0 100L20 100L20 60L40 60L40 100L20 100L0 100L0 120L150 120C150 71.2 150 40.69 150 28.49C150 12.76 137.24 0 121.51 0C97.21 0 53.26 0 29.07 0C13.02 0 0 13.02 0 29.07C0 38.53 0 62.17 0 100Z" id="arnzcSw8d"></path>
</svg>
