<?xml version="1.0" encoding="UTF-8" standalone="no"?>
<!DOCTYPE svg PUBLIC "-//W3C//DTD SVG 1.1//EN" "http://www.w3.org/Graphics/SVG/1.1/DTD/svg11.dtd">
<svg version="1.1"
    xmlns="http://www.w3.org/2000/svg"
    xmlns:xlink="http://www.w3.org/1999/xlink" preserveAspectRatio="xMidYMid meet" viewBox="99 99 404 404">

    <path d="M100 300C100 300 100 300 100 300C210.46 300 300 210.46 300 100C300 100 300 100 300 100C300 100 300 100 300 100C300 210.46 389.54 300 500 300C500 300 500 300 500 300C500 300 500 300 500 300C389.54 300 300 389.54 300 500C300 500 300 500 300 500C300 500 300 500 300 500C300 389.54 210.46 300 100 300C100 300 100 300 100 300Z" id="a2fVkXMbji"></path>

</svg>