<?xml version="1.0" encoding="UTF-8" standalone="no"?>
<!DOCTYPE svg PUBLIC "-//W3C//DTD SVG 1.1//EN" "http://www.w3.org/Graphics/SVG/1.1/DTD/svg11.dtd">
<svg version="1.1"
    xmlns="http://www.w3.org/2000/svg"
    xmlns:xlink="http://www.w3.org/1999/xlink" preserveAspectRatio="xMidYMid meet" viewBox="139 49 424.0000000000001 594.0000000000007">

    <path d="M349.95 150L349.95 200C349.95 200 349.95 200 349.95 200C338.9 200 329.95 208.95 329.95 220C329.95 237.33 329.95 280.67 329.95 350L240 290C235.71 251.58 233.03 227.57 231.95 217.97C230.81 207.74 222.16 200 211.87 200C207.48 200 215.48 200 211.87 200C200.19 200 191.11 210.17 192.44 221.78C199.94 287.42 220.36 466.09 227.96 532.61C229.09 542.52 237.48 550 247.45 550C251.95 550 243.95 550 247.45 550C259.44 550 268.74 539.56 267.37 527.65C263.72 495.97 254.6 416.75 240 290L329.95 350C329.95 445.5 329.95 505.18 329.95 529.06C329.95 540.62 339.32 550 350.89 550C354.7 550 346.7 550 350.89 550C361.41 550 369.95 541.47 369.95 530.94C369.95 506.82 369.95 446.5 369.95 350L460 290C440.54 416.34 428.37 495.31 423.51 526.89C421.63 539.04 431.03 550 443.33 550C446.65 550 438.65 550 443.33 550C452.86 550 460.95 542.99 462.3 533.55C471.83 466.84 497.39 287.86 506.76 222.32C508.44 210.54 499.3 200 487.39 200C483.91 200 491.91 200 487.39 200C477.46 200 469.12 207.47 468.03 217.34C466.96 227.03 464.28 251.25 460 290L369.95 350C369.95 280.67 369.95 237.33 369.95 220C369.95 208.95 360.99 200 349.95 200C349.95 200 349.95 200 349.95 200L349.95 150C451.83 150 515.5 150 540.97 150C545.77 150 549.52 154.15 549.03 158.93C539.22 255.14 513.27 509.39 504.11 599.23C501.74 622.39 482.24 640 458.97 640C407.16 640 292.52 640 240.67 640C217.54 640 198.16 622.5 195.81 599.49C186.64 509.59 160.77 256.03 150.97 160.04C150.42 154.67 154.64 150 160.03 150C185.36 150 248.66 150 349.95 150Z" id="ec0unZJuj"></path>
    <path d="M280 80C280 80 280 80 280 80C280 63.43 293.43 50 310 50C332 50 368 50 390 50C406.57 50 420 63.43 420 80C420 80 420 80 420 80C479.01 80 515.89 80 530.64 80C546.85 80 560 93.15 560 109.36C560 113.49 560 113.94 560 122.42C560 126.61 556.61 130 552.42 130C469.94 130 230.73 130 148.42 130C143.77 130 140 126.23 140 121.58C140 113.27 140 113.83 140 109.78C140 93.33 153.33 80 169.78 80C184.48 80 221.22 80 280 80Z" id="n1yUi3C289"></path>

</svg>